<?xml version="1.0" standalone="no"?>
<!DOCTYPE svg PUBLIC "-//W3C//DTD SVG 20010904//EN"
 "http://www.w3.org/TR/2001/REC-SVG-20010904/DTD/svg10.dtd">
<svg version="1.0" xmlns="http://www.w3.org/2000/svg"
 width="630.000000pt" height="322.000000pt" viewBox="0 0 630.000000 322.000000"
 preserveAspectRatio="xMidYMid meet">

<g transform="translate(0.000000,322.000000) scale(0.100000,-0.100000)"
fill="#000000" stroke="none">
<path d="M972 2333 c-18 -9 -43 -30 -55 -47 l-22 -31 -3 -705 c-2 -656 -1
-707 15 -740 29 -57 74 -80 155 -80 67 0 70 -1 110 -40 23 -22 69 -50 104 -64
135 -54 127 -54 1904 -66 1109 -7 1665 -7 1706 0 128 21 233 74 283 141 18 24
29 29 64 29 55 0 106 26 134 69 l23 35 -2 710 -3 711 -22 31 c-50 69 139 64
-2225 64 -1944 0 -2136 -2 -2166 -17z m617 -237 c51 -27 66 -95 30 -140 -30
-38 -64 -49 -105 -36 -43 14 -64 44 -64 90 0 77 70 121 139 86z m306 0 c92
-39 65 -176 -36 -176 -50 0 -88 33 -96 82 -5 33 -2 41 30 73 39 39 52 42 102
21z m-601 -22 c37 -37 35 -86 -3 -125 -39 -38 -88 -40 -125 -3 -57 58 -17 154
64 154 27 0 45 -7 64 -26z m1260 -19 c-9 -14 -18 -25 -21 -25 -5 0 5 18 20 38
17 22 18 13 1 -13z m626 -5 c0 -5 -4 -10 -10 -10 -5 0 -10 5 -10 10 0 6 5 10
10 10 6 0 10 -4 10 -10z m260 0 c0 -5 -7 -10 -15 -10 -8 0 -15 5 -15 10 0 6 7
10 15 10 8 0 15 -4 15 -10z m-841 -55 l0 -20 -9 20 c-5 11 -9 29 -9 40 l0 20
9 -20 c5 -11 9 -29 9 -40z m391 5 c16 -31 13 -110 -5 -110 -12 0 -15 13 -15
55 0 47 -3 55 -19 55 -23 0 -31 -19 -31 -71 0 -58 -18 -47 -22 14 -3 44 -6 52
-23 52 -17 0 -20 -8 -23 -52 -2 -38 -7 -53 -18 -53 -11 0 -14 15 -14 64 l0 63
80 1 c68 0 82 -3 90 -18z m128 8 c7 -7 12 -35 12 -63 l0 -52 -52 1 c-50 1 -53
3 -56 28 -3 24 1 28 37 38 46 12 57 40 16 40 -14 0 -25 -4 -25 -10 0 -5 -7
-10 -15 -10 -8 0 -15 4 -15 8 0 17 25 32 55 32 17 0 36 -5 43 -12z m62 -53 c0
-37 -4 -65 -10 -65 -6 0 -10 28 -10 65 0 37 4 65 10 65 6 0 10 -28 10 -65z
m130 45 c16 -30 13 -110 -4 -110 -11 0 -16 15 -18 53 -3 44 -6 52 -23 52 -17
0 -20 -8 -23 -52 -2 -38 -7 -53 -18 -53 -11 0 -14 15 -14 63 l0 63 45 2 c35 1
47 -3 55 -18z m130 -51 c0 -39 -5 -79 -10 -90 -11 -20 -40 -27 -40 -9 0 6 5
10 10 10 6 0 10 33 10 80 0 64 3 80 15 80 12 0 15 -15 15 -71z m118 59 c7 -7
12 -35 12 -63 l0 -52 -52 1 c-50 1 -53 3 -56 28 -3 24 1 28 37 38 46 12 57 40
16 40 -14 0 -25 -4 -25 -10 0 -5 -7 -10 -15 -10 -8 0 -15 4 -15 8 0 17 25 32
55 32 17 0 36 -5 43 -12z m62 -25 c18 -57 26 -59 40 -9 8 28 18 46 27 46 8 0
13 -6 10 -12 -2 -7 -13 -37 -23 -65 -10 -29 -24 -53 -31 -53 -10 0 -53 96 -53
120 0 24 20 6 30 -27z m188 25 c5 -7 12 -36 13 -64 l4 -52 -49 2 c-82 2 -90
56 -11 70 19 4 35 11 35 17 0 16 -31 23 -51 11 -24 -15 -29 -15 -29 2 0 26 69
36 88 14z m-428 -108 c0 -5 -7 -10 -15 -10 -8 0 -15 5 -15 10 0 6 7 10 15 10
8 0 15 -4 15 -10z m-1060 -644 c0 -20 4 -22 27 -18 31 6 53 -18 53 -57 0 -36
-27 -61 -67 -61 l-33 0 0 80 c0 47 4 80 10 80 6 0 10 -11 10 -24z m1255 -6
c-19 -36 -19 -71 -1 -115 9 -20 11 -35 5 -35 -13 0 -39 63 -39 95 0 30 26 85
41 85 5 0 3 -13 -6 -30z m123 5 c17 -37 15 -107 -4 -133 -21 -30 -38 -28 -18
3 16 25 16 100 0 138 -5 9 -4 17 1 17 6 0 15 -11 21 -25z m-2378 5 c0 -5 -16
-10 -35 -10 -28 0 -35 -4 -35 -20 0 -15 7 -20 29 -20 17 0 33 -4 36 -10 4 -6
-8 -10 -29 -10 -32 0 -36 -3 -36 -25 0 -22 4 -25 35 -25 19 0 35 -4 35 -10 0
-5 -20 -10 -45 -10 l-45 0 0 75 0 75 45 0 c25 0 45 -4 45 -10z m538 -23 c33
-69 -33 -151 -82 -101 -21 21 -21 97 0 119 25 24 66 15 82 -18z m918 3 c13 0
24 -4 24 -10 0 -5 -11 -10 -25 -10 -22 0 -25 -4 -25 -40 0 -36 3 -40 25 -40
14 0 25 -4 25 -10 0 -11 -30 -13 -54 -4 -11 4 -16 19 -16 50 0 32 -4 44 -15
44 -8 0 -15 5 -15 10 0 6 6 10 14 10 8 0 17 8 21 18 8 16 8 16 12 0 3 -11 14
-18 29 -18z m273 0 c11 0 21 -4 21 -10 0 -5 -11 -10 -25 -10 -22 0 -25 -4 -25
-40 0 -36 3 -40 25 -40 14 0 25 -4 25 -10 0 -5 -13 -10 -30 -10 -34 0 -50 23
-50 69 0 17 -4 31 -10 31 -5 0 -10 5 -10 10 0 6 7 10 15 10 8 0 15 8 15 18 1
16 1 16 14 0 7 -10 23 -18 35 -18z m-1612 -12 c6 -7 13 -34 15 -59 l5 -46 -46
1 c-42 1 -46 3 -46 26 0 20 7 27 33 35 41 12 42 35 1 35 -17 0 -28 4 -24 10 9
14 51 12 62 -2z m143 2 c0 -5 -13 -10 -30 -10 -40 0 -40 -26 1 -35 35 -8 47
-28 29 -50 -14 -17 -66 -20 -75 -5 -4 6 9 10 30 10 45 0 43 20 -3 32 -25 7
-32 14 -32 32 0 14 6 27 13 29 22 9 67 7 67 -3z m79 -46 l14 -49 17 49 c9 28
21 51 28 54 14 4 -25 -116 -46 -140 -16 -19 -42 -24 -42 -9 0 5 10 11 22 14
16 5 19 9 11 19 -19 23 -44 120 -30 115 6 -2 18 -26 26 -53z m281 45 c0 -6 7
-8 15 -5 8 3 22 9 30 12 8 3 15 2 15 -4 0 -5 -11 -13 -25 -16 -21 -5 -25 -12
-25 -41 0 -28 4 -35 20 -35 11 0 20 -4 20 -10 0 -5 -22 -10 -50 -10 -27 0 -50
5 -50 10 0 6 9 10 20 10 17 0 20 7 20 40 0 29 -4 40 -15 40 -8 0 -15 5 -15 10
0 6 9 10 20 10 11 0 20 -5 20 -11z m113 -2 c19 12 71 12 79 -1 11 -17 9 -106
-2 -106 -5 0 -10 23 -10 50 0 38 -4 50 -15 50 -11 0 -15 -12 -15 -50 0 -27 -4
-50 -10 -50 -5 0 -10 23 -10 51 0 67 -23 62 -31 -7 -6 -48 -6 -48 -7 16 0 36
2 59 5 52 2 -6 10 -9 16 -5z m475 -19 c11 -23 11 -33 0 -55 -24 -51 -98 -35
-98 20 0 65 72 89 98 35z m132 13 c15 -29 12 -62 -7 -83 -18 -21 -53 -24 -71
-6 -17 17 -15 74 4 92 21 22 61 20 74 -3z m267 3 c2 -7 -8 -9 -27 -6 -23 3
-30 0 -30 -12 0 -9 6 -16 13 -16 7 0 23 -7 35 -16 18 -12 20 -19 12 -35 -12
-21 -74 -27 -85 -9 -4 6 9 10 30 10 41 0 45 21 5 30 -57 14 -46 74 13 68 17
-2 32 -8 34 -14z m229 5 c4 -8 9 -8 17 0 13 13 37 15 37 3 0 -5 -11 -14 -25
-20 -33 -15 -37 -72 -5 -72 11 0 20 -4 20 -10 0 -5 -22 -10 -50 -10 -27 0 -50
5 -50 10 0 6 7 10 15 10 11 0 15 11 15 40 0 22 -4 40 -10 40 -5 0 -10 5 -10
10 0 13 37 13 46 -1z m174 -8 c5 -11 10 -37 10 -59 l0 -39 -47 1 c-44 1 -48 3
-48 26 0 20 7 27 33 35 42 12 44 39 2 33 -16 -3 -30 -2 -30 2 0 27 65 27 80 1z
m117 13 c30 -6 40 -56 18 -90 -12 -19 -23 -25 -41 -21 -20 3 -24 0 -24 -19 0
-13 -4 -24 -10 -24 -6 0 -10 33 -10 79 0 87 1 87 67 75z m393 -9 c0 -8 -7 -15
-15 -15 -8 0 -15 7 -15 15 0 8 7 15 15 15 8 0 15 -7 15 -15z m-1610 -90 c0 -8
-7 -15 -15 -15 -8 0 -15 7 -15 15 0 8 7 15 15 15 8 0 15 -7 15 -15z m1610 -7
c0 -28 -16 -55 -26 -45 -4 3 -1 13 6 22 8 10 9 15 1 15 -6 0 -11 7 -11 15 0 8
7 15 15 15 9 0 15 -9 15 -22z"/>
<path d="M3061 1939 c-17 -7 -21 -13 -14 -20 15 -15 47 -7 51 14 4 19 -2 20
-37 6z"/>
<path d="M3501 1939 c-17 -7 -21 -13 -14 -20 15 -15 47 -7 51 14 4 19 -2 20
-37 6z"/>
<path d="M3758 1943 c-24 -6 -23 -33 0 -33 19 0 42 18 42 32 0 8 -13 9 -42 1z"/>
<path d="M2326 1204 c-13 -33 -7 -64 13 -64 27 0 44 26 37 55 -7 28 -40 34
-50 9z"/>
<path d="M1784 1236 c-3 -8 -4 -31 -2 -52 3 -34 6 -39 27 -39 30 0 46 40 32
78 -11 29 -48 37 -57 13z"/>
<path d="M1393 1173 c-7 -2 -13 -11 -13 -20 0 -21 44 -13 48 10 3 17 -10 21
-35 10z"/>
<path d="M2460 1180 c0 -37 2 -41 23 -38 18 2 22 9 22 38 0 29 -4 36 -22 38
-21 3 -23 -1 -23 -38z"/>
<path d="M2594 1206 c-11 -29 1 -61 23 -64 24 -4 38 25 28 58 -7 23 -43 27
-51 6z"/>
<path d="M3275 1167 c-13 -10 -15 -16 -6 -21 17 -11 41 0 41 19 0 19 -11 19
-35 2z"/>
<path d="M3404 1206 c-11 -29 1 -61 24 -64 20 -3 22 1 22 37 0 35 -3 41 -20
41 -11 0 -23 -6 -26 -14z"/>
</g>
</svg>
